<svg width="95" height="43" viewBox="0 0 95 43" fill="none" xmlns="http://www.w3.org/2000/svg">
<path d="M89.6483 15.3686C89.6686 15.4481 89.6923 15.5422 89.7221 15.6602C89.1129 15.8591 88.473 16.0686 87.833 16.2777C87.832 16.3055 87.831 16.3333 87.83 16.3612C87.9396 16.3743 88.0553 16.4158 88.1578 16.3951C88.4856 16.3293 88.8094 16.2397 89.1342 16.1597C89.1549 16.1931 89.1751 16.2265 89.1958 16.2599C89.1382 16.3101 89.0882 16.3865 89.022 16.4067C88.6947 16.5049 88.3588 16.5748 88.0346 16.6811C87.8654 16.7367 87.7143 16.8466 87.5391 16.9402C87.5077 16.8678 87.4795 16.8036 87.4537 16.7443C87.3431 16.7798 87.2375 16.8208 87.1284 16.8466C86.7637 16.9326 86.397 17.0126 86.0318 17.0956C85.7773 17.1538 85.5227 17.2125 85.2686 17.2728C85.2035 17.2879 85.1378 17.3315 85.0762 17.3254C84.7767 17.294 84.5484 17.377 84.4079 17.666C84.3852 17.7136 84.2751 17.7339 84.2034 17.7394C83.7382 17.7759 83.2715 17.8007 82.8063 17.8381C82.5164 17.8614 82.2284 17.9211 81.939 17.9277C81.6643 17.9338 81.3915 17.9576 81.1177 17.8159C80.9293 17.7187 80.6773 17.7126 80.4561 17.7222C80.1939 17.7334 79.9575 17.7344 79.6994 17.6271C79.412 17.5076 79.0837 17.4793 78.77 17.4317C78.2265 17.3492 77.7204 17.1786 77.2461 16.8931C76.9178 16.6957 76.5436 16.5707 76.2274 16.3576C74.9833 15.52 74.0499 14.3998 73.3503 13.0793C73.2215 12.8363 73.124 12.5767 73.0003 12.3302C72.9538 12.2386 72.8882 12.1348 72.8033 12.0933C72.7619 12.0731 72.6417 12.1697 72.5836 12.2365C72.0356 12.8667 71.4971 13.506 70.9471 14.1341C70.6546 14.4682 70.2712 14.6504 69.8308 14.5962C69.6065 14.5689 69.3525 14.4672 69.1898 14.3153C68.759 13.9129 68.3958 13.4503 68.263 12.849C68.2438 12.7629 68.1902 12.684 68.1165 12.523C67.9291 12.8662 67.7841 13.1562 67.6174 13.4336C67.0522 14.3735 66.4401 15.2633 65.3485 15.6753C65.0404 15.7918 64.7672 16.0003 64.4596 16.1172C63.7701 16.3784 63.1387 16.3197 62.6518 15.6865C62.6215 15.647 62.5841 15.6126 62.5473 15.5787C62.1386 15.2036 62.0901 14.7678 62.1876 14.2262C62.3225 13.4776 62.7145 12.8561 63.016 12.189C63.0923 12.0199 63.268 11.8989 63.3827 11.7446C64.1969 10.6462 65.348 9.96745 66.4815 9.27605C66.7578 9.1075 67.1083 9.06043 67.425 8.95768C67.4801 8.93996 67.5523 8.93794 67.5866 8.90099C67.9109 8.55478 68.3377 8.57047 68.7564 8.55984C69.2913 8.54668 69.2974 8.54972 69.2727 9.07409C69.2636 9.26593 69.2292 9.45826 69.1868 9.64605C69.0656 10.1866 69.1959 10.7166 69.2297 11.2521C69.2605 11.7446 69.4237 12.1819 69.6621 12.601C69.8571 12.9431 70.1232 13.0175 70.4273 12.7599C71.1511 12.1464 71.7911 11.4566 72.2825 10.6341C72.478 10.3071 72.3184 9.99529 72.3103 9.67743C72.3017 9.35248 72.2588 9.02803 72.2341 8.70308C72.2073 8.35131 72.1588 7.99902 72.1654 7.64725C72.1835 6.67037 72.1901 5.69097 72.2689 4.71814C72.3406 3.8344 72.4209 2.94256 72.7356 2.0993C72.9048 1.6463 73.0846 1.19734 73.2771 0.753949C73.4306 0.400148 73.7458 0.257919 74.0868 0.105061C74.4812 -0.0720928 74.8186 -0.0047744 75.1667 0.155676C75.5192 0.318151 75.7485 0.609189 75.9531 0.935152C76.5734 1.92468 76.6001 2.98406 76.3718 4.08545C76.3228 4.32283 76.3658 4.58198 76.3006 4.81228C76.0996 5.52039 75.8698 6.2204 75.6445 6.92142C75.4945 7.3886 75.3409 7.85477 75.1727 8.31588C75.0939 8.53251 74.9863 8.73953 74.8767 8.943C74.5777 9.49977 74.2651 10.0489 73.9731 10.6093C73.9221 10.7074 73.8953 10.8639 73.9367 10.958C74.2226 11.6089 74.4833 12.278 74.8404 12.89C75.5288 14.0698 76.4764 14.9966 77.7437 15.5544C78.2013 15.7558 78.663 15.9537 79.1352 16.1167C79.4171 16.2139 79.7227 16.2443 80.0186 16.2979C80.9324 16.4639 81.8562 16.4791 82.7795 16.4422C83.3382 16.4199 83.8978 16.3754 84.4524 16.304C85.206 16.2068 85.9581 16.0909 86.7046 15.9502C87.236 15.85 87.7588 15.6996 88.2831 15.5635C88.5674 15.4896 88.8473 15.397 89.1301 15.315C89.1695 15.3033 89.214 15.2937 89.2534 15.2993C89.3801 15.3175 89.5059 15.3433 89.6494 15.3691L89.6483 15.3686ZM74.8808 1.23277C74.5454 1.32843 74.3297 1.51419 74.1489 1.99453C73.915 2.61609 73.7731 3.26751 73.7014 3.92854C73.6301 4.58654 73.5544 5.24656 73.5311 5.9076C73.5034 6.70732 73.5266 7.50957 73.5337 8.31031C73.5347 8.40951 73.5731 8.50821 73.6034 8.65196C73.7847 8.36649 73.9564 8.14581 74.0751 7.89931C74.2888 7.45592 74.4792 7.00089 74.6631 6.54383C74.7863 6.23761 74.8818 5.92025 74.9904 5.60796C75.0227 5.51381 75.0591 5.42119 75.0889 5.32654C75.1454 5.14736 75.2076 4.96869 75.2515 4.78596C75.2919 4.61691 75.3152 4.4433 75.3394 4.2707C75.3591 4.13353 75.3818 3.99485 75.3808 3.85717C75.3788 3.57373 75.3434 3.28978 75.3551 3.00785C75.3783 2.44906 75.3051 1.92114 74.9702 1.45295C74.9283 1.39474 74.9136 1.31679 74.8808 1.23328V1.23277ZM67.62 10.1512C67.5942 10.1355 67.569 10.1198 67.5432 10.1046C67.2225 10.26 66.878 10.3805 66.587 10.5794C66.1951 10.8466 65.8476 11.1797 65.4738 11.4753C64.9844 11.8615 64.5081 12.2608 64.2126 12.8242C64.007 13.2165 63.7984 13.6107 63.6423 14.0238C63.5034 14.3917 63.6762 14.8984 64.0888 14.8458C64.4 14.8063 64.7753 14.7663 64.9899 14.576C65.5339 14.0951 66.2209 13.7585 66.5295 13.0135C66.6477 12.728 66.8856 12.4724 67.0548 12.19C67.2356 11.8878 67.3699 11.5816 67.4543 11.2576C67.5482 10.8993 67.5679 10.5212 67.62 10.1517V10.1512Z" fill="#00843E"/>
<path d="M29.7698 13.9267C30.037 13.6883 30.2461 13.5 30.4568 13.3137C30.7942 13.0151 31.1341 12.72 31.4695 12.4193C31.7099 12.2037 31.9433 11.98 32.1827 11.7634C32.3251 11.6343 33.0313 11.5908 33.1813 11.6996C33.1969 11.7107 33.1959 11.7451 33.2065 11.7831C33.0146 11.8858 32.7954 11.9724 32.8025 12.2488C32.8025 12.2614 32.7833 12.2756 32.7727 12.2882C32.612 12.4745 32.4595 12.6694 32.2883 12.8455C31.9059 13.2393 31.4907 13.6042 31.1321 14.0183C30.772 14.4338 30.4452 14.8828 30.1446 15.3439C30.0527 15.4846 30.078 15.7144 30.082 15.9022C30.0911 16.3567 30.1633 16.8143 30.1269 17.2642C30.0946 17.6676 29.9704 18.0675 29.8512 18.4577C29.7784 18.6961 29.1844 19.0636 28.9728 18.9922C28.7601 18.9209 28.5334 18.7979 28.3894 18.6314C27.9161 18.0817 27.7419 17.4414 27.9995 16.7383C28.0929 16.4832 28.25 16.2494 28.3929 16.015C28.6778 15.5499 28.8086 15.0615 28.6763 14.5168C28.5611 14.0436 28.4566 13.5673 28.352 13.0915C28.2859 12.7893 28.2096 12.7534 27.9853 12.966C27.1721 13.7379 26.1816 14.2369 25.2214 14.781C24.7204 15.065 24.2138 15.3459 23.6859 15.5722C22.4702 16.0925 21.2221 16.5141 19.8765 16.4989C19.5689 16.4954 19.2512 16.4569 18.9567 16.3709C18.1571 16.1375 17.7803 15.5129 17.5702 14.7598C17.5055 14.5275 17.4621 14.2891 17.3959 13.996C17.1525 14.0547 16.8888 14.1149 16.6272 14.1828C16.2327 14.285 15.8427 14.4065 15.4457 14.4951C14.7689 14.6459 14.087 14.7735 13.4092 14.9202C13.2299 14.9587 13.0607 15.0422 12.8824 15.0847C12.4187 15.1946 11.955 15.3105 11.4858 15.392C10.6549 15.5367 9.81439 15.6294 8.98906 15.7989C8.42688 15.9143 7.83642 15.8931 7.2995 16.1461C7.18687 16.1993 7.03433 16.1644 6.90048 16.1755C6.25546 16.2307 5.61146 16.3076 4.96494 16.338C4.36841 16.3658 3.76987 16.3516 3.17234 16.3425C2.8708 16.338 2.56875 16.3117 2.26821 16.2813C1.58077 16.2124 0.948389 15.9629 0.362474 15.6147C0.222561 15.5317 0.168011 15.3009 0.0801234 15.1343C0.0462818 15.0701 0.0149657 14.9977 0.00789427 14.9268C-0.00473321 14.7998 0.00183308 14.6707 0.00082288 14.5421C0.119016 14.5518 0.246806 14.5351 0.353382 14.575C0.774635 14.733 1.18174 14.9319 1.60855 15.069C1.9 15.1627 2.21669 15.2254 2.52127 15.2229C3.42792 15.2158 4.3376 15.2087 5.23971 15.1273C6.02918 15.0559 6.80855 14.8772 7.59448 14.7608C7.97583 14.7046 8.36425 14.694 8.74611 14.6424C9.11988 14.5917 9.49163 14.5224 9.86137 14.448C10.6332 14.2926 11.407 14.1433 12.1732 13.9641C13.144 13.7369 14.1082 13.4838 15.075 13.2388C15.966 13.0131 16.859 12.7919 17.7444 12.5459C17.9086 12.5003 18.0839 12.3748 18.1839 12.2361C18.8238 11.3473 19.6057 10.6038 20.5033 9.99233C21.1438 9.55602 21.8211 9.17236 22.4944 8.78667C23.2884 8.33164 24.1587 8.12412 25.0674 8.08767C25.3563 8.07603 25.6588 8.07401 25.9341 8.14639C26.3296 8.25066 26.5958 8.56751 26.8337 8.88385C27.0186 9.12984 26.9908 9.52869 26.811 9.77671C26.5322 10.1619 26.219 10.4706 25.7341 10.6311C25.23 10.7981 24.7739 11.1054 24.286 11.3271C23.3869 11.7355 22.4904 12.1511 21.5736 12.5155C20.8367 12.8086 20.0714 13.0287 19.3198 13.2838C18.9254 13.4175 18.8597 13.8026 18.744 14.119C18.6577 14.3544 18.64 14.6661 18.9016 14.8317C19.1193 14.9693 19.386 15.1303 19.6219 15.1171C20.2124 15.0842 20.8028 14.9845 21.3832 14.862C21.8989 14.7537 22.4156 14.6176 22.9045 14.4242C23.5329 14.1757 24.139 13.8679 24.7451 13.5668C25.6679 13.1087 26.4604 12.4568 27.26 11.82C27.4944 11.6333 27.6969 11.402 27.8914 11.1717C27.9555 11.0952 27.9661 10.9586 27.9697 10.8482C27.9914 10.1826 28.149 9.56615 28.6101 9.06202C28.9081 8.73555 29.2849 8.72846 29.5941 9.04026C29.7239 9.17135 29.8512 9.30902 29.9542 9.46137C30.1573 9.76254 30.078 10.1108 30.0022 10.4134C29.9214 10.7369 29.7471 11.0497 29.5567 11.3286C29.3986 11.5604 29.3137 11.7694 29.3764 12.0483C29.5102 12.6425 29.6279 13.2403 29.7709 13.9277L29.7698 13.9267ZM25.2745 9.3075C25.2709 9.27562 25.2669 9.24373 25.2633 9.21184C24.9972 9.23462 24.7274 9.23765 24.4658 9.28523C24.2309 9.32775 23.9996 9.40418 23.7768 9.49174C23.25 9.69825 22.701 9.87186 22.2131 10.1502C21.7312 10.4251 21.3109 10.8098 20.869 11.1534C20.724 11.2663 20.5967 11.4025 20.4452 11.5432C20.9791 11.7841 24.7158 10.0136 25.2745 9.30801V9.3075Z" fill="#00843E"/>
<path d="M44.63 39.1914C44.9785 39.6798 45.328 40.1698 45.6775 40.6597C46.0523 41.1851 46.4357 41.7044 46.7943 42.2404C46.867 42.3488 46.9009 42.5431 46.8529 42.6545C46.8115 42.7506 46.6297 42.8347 46.5074 42.8387C45.919 42.8574 45.329 42.862 44.7411 42.8362C44.6007 42.8301 44.4224 42.7198 44.3365 42.6018C43.7198 41.754 43.1091 40.9007 42.5262 40.0291C42.3186 39.7193 42.1055 39.5442 41.716 39.5993C41.46 39.6353 41.1943 39.6201 40.9347 39.6019C40.723 39.5872 40.6791 39.6783 40.6806 39.8656C40.6872 40.6749 40.6841 41.4848 40.6826 42.2941C40.6816 42.7522 40.5877 42.8463 40.1386 42.8468C39.7093 42.8473 39.2805 42.8488 38.8511 42.8463C38.5056 42.8443 38.3672 42.7152 38.3672 42.3791C38.3652 39.3685 38.3652 36.3579 38.3672 33.3473C38.3672 33.0097 38.4779 32.9009 38.8021 32.9009C40.3083 32.9009 41.8166 32.8624 43.3207 32.9186C44.5325 32.9637 45.5785 33.4217 46.2185 34.5368C46.6049 35.2095 46.7004 35.9414 46.5817 36.7046C46.4013 37.8642 45.7584 38.6594 44.6896 39.12C44.6694 39.1286 44.6577 39.157 44.63 39.1909V39.1914ZM41.9322 37.4872C41.9332 37.4983 41.9337 37.5099 41.9348 37.5211C42.4025 37.4841 42.8768 37.4851 43.3354 37.4011C43.892 37.2994 44.334 36.9188 44.2819 36.1555C44.2415 35.5577 43.8915 35.1432 43.25 35.1001C42.4631 35.047 41.6726 35.0581 40.8831 35.0394C40.7271 35.0359 40.6806 35.1163 40.6811 35.2591C40.6841 35.9247 40.6856 36.5903 40.6806 37.2553C40.6791 37.4325 40.7538 37.4922 40.923 37.4887C41.2589 37.4816 41.5953 37.4867 41.9317 37.4867L41.9322 37.4872Z" fill="#005240"/>
<path d="M52.0934 30.858C49.1896 30.9222 46.9187 28.6253 46.9278 25.7645C46.9374 22.883 49.1588 20.5896 52.1126 20.5886C55.0806 20.5881 57.2803 22.7418 57.2904 25.7124C57.3005 28.6547 54.9245 30.9182 52.0934 30.858ZM54.9235 25.8136C54.9088 25.1334 54.7573 24.5594 54.4325 24.03C53.8911 23.1462 52.6707 22.5571 51.5378 22.8238C50.9579 22.9605 50.468 23.208 50.0735 23.6387C49.3007 24.4835 49.1588 25.51 49.4113 26.5638C49.6811 27.69 50.5589 28.6172 51.9616 28.6896C52.5374 28.7195 53.0824 28.6172 53.5713 28.3029C54.4972 27.7077 54.8896 26.8239 54.9235 25.8131V25.8136Z" fill="#005240"/>
<path d="M52.769 13.3431C52.9155 13.6023 52.8948 13.8361 52.869 14.0624C52.8478 14.2502 52.6564 14.4228 52.8337 14.6293C52.8483 14.6465 52.7993 14.7416 52.7599 14.7791C52.4963 15.0281 52.2275 15.2716 51.9593 15.5155C51.9417 15.5317 51.9119 15.5343 51.8927 15.55C50.9289 16.3148 49.899 16.2166 48.8828 15.7175C48.0292 15.2979 47.4938 14.5802 47.2553 13.6509C47.2412 13.5957 47.222 13.5415 47.1968 13.4601C46.8785 13.8533 46.5856 14.234 46.2719 14.5964C46.1199 14.772 45.9436 14.9355 45.7527 15.0676C45.4723 15.262 45.1961 15.2306 45.0132 14.938C44.7041 14.443 44.4349 13.9222 44.1707 13.4008C44.0353 13.1341 43.9475 12.8431 43.8176 12.51C43.6798 12.6644 43.5666 12.7889 43.4555 12.9154C42.963 13.4757 42.4796 14.0447 41.9745 14.5928C41.8023 14.7796 41.5725 14.9132 41.372 15.0747C41.1002 15.2933 40.8416 15.5302 40.5592 15.7337C39.9011 16.208 39.1748 16.4626 38.3479 16.4251C37.5463 16.3892 36.9867 15.966 36.6654 15.2928C36.4563 14.854 36.3962 14.3509 36.5003 13.8209C36.617 13.2262 36.774 12.6462 37.0034 12.0975C37.2579 11.4891 37.6378 10.948 38.0636 10.4292C38.6363 9.73072 39.296 9.1456 40.0425 8.66071C40.381 8.44104 40.7714 8.27552 41.1613 8.17328C41.3805 8.11609 41.6755 8.1834 41.8836 8.29425C42.1387 8.43041 42.3579 8.65261 42.5554 8.87127C42.7196 9.05298 42.7211 9.29644 42.6862 9.54243C42.6054 10.1164 42.3827 10.6367 42.0205 11.0705C41.7558 11.3874 41.431 11.6835 41.076 11.889C40.3683 12.2989 39.6213 12.6411 38.8904 13.0096C38.8465 13.0318 38.797 13.0572 38.7505 13.0566C38.0474 13.0485 37.8297 13.5967 37.8241 14.1094C37.8211 14.3873 37.7721 14.7001 38.0302 14.9355C38.458 15.3252 38.9556 15.2974 39.3809 15.0939C39.9102 14.8403 40.3577 14.4724 40.7603 14.0502C41.2684 13.5183 41.7765 12.9858 42.2705 12.4402C42.4423 12.2509 42.567 12.019 42.7211 11.813C43.1009 11.3049 43.4747 10.7911 43.8727 10.2971C44.1061 10.0076 44.4546 9.96051 44.7526 10.1458C44.8122 10.1827 44.8501 10.2799 44.8682 10.3563C45.043 11.0907 45.2092 11.8267 45.384 12.5611C45.4127 12.6821 45.4734 12.7955 45.5203 12.9119C45.6198 13.1589 45.7587 13.1867 45.9032 12.9645C46.1355 12.6067 46.3447 12.2336 46.5593 11.8641C46.7482 11.5397 46.9553 11.2223 47.1089 10.8817C47.2483 10.5719 47.3256 10.2343 47.4331 9.90989C47.52 9.64821 47.5741 9.36527 47.7145 9.13598C47.8059 8.98667 48.017 8.85102 48.1908 8.82723C48.4156 8.79636 48.656 8.88341 48.7681 9.137C48.7818 9.16737 48.7893 9.20836 48.8131 9.22406C49.156 9.44929 49.0186 9.73628 48.905 10.0076C48.563 10.8245 48.4277 11.6708 48.5428 12.549C48.5903 12.9114 48.6964 13.2652 48.758 13.6261C48.8848 14.3681 49.7263 14.771 50.3188 14.774C50.8234 14.7771 51.3088 14.6829 51.7381 14.4086C52.0957 14.1803 52.4235 13.912 52.6195 13.5172C52.6442 13.4676 52.6922 13.4297 52.767 13.3436L52.769 13.3431ZM41.4316 9.31162C41.3108 9.35464 41.2214 9.37084 41.1492 9.41437C40.2451 9.96405 39.4521 10.6524 38.7182 11.4091C38.5606 11.5716 38.4747 11.8034 38.3555 12.0033C38.3772 12.0241 38.3989 12.0448 38.4207 12.0656C38.4949 12.0433 38.5752 12.0317 38.6429 11.9968C38.8429 11.893 39.0313 11.7644 39.2364 11.6728C39.8819 11.3848 40.4673 11.0088 40.983 10.5249C41.3209 10.2075 41.4563 9.81575 41.4316 9.31111V9.31162Z" fill="#00843E"/>
<path d="M82.6484 30.7254C82.3877 30.7254 82.1266 30.7269 81.866 30.7249C81.6599 30.7233 81.5255 30.6282 81.4452 30.4303C81.2083 29.8472 80.9543 29.2712 80.7214 28.6866C80.6537 28.517 80.5573 28.4598 80.3825 28.4608C79.2379 28.4659 78.0934 28.4649 76.9493 28.4619C76.7619 28.4613 76.6549 28.5099 76.5771 28.7119C76.3543 29.2899 76.0907 29.8523 75.8492 30.4232C75.7588 30.6368 75.6098 30.7314 75.38 30.7289C74.9087 30.7233 74.4375 30.7335 73.9662 30.7254C73.5318 30.7183 73.4172 30.4915 73.5985 30.0891C74.0082 29.1796 74.4011 28.2629 74.8027 27.3498C75.3891 26.0146 75.9796 24.6809 76.5635 23.3441C76.9089 22.5535 77.2484 21.7609 77.5822 20.9657C77.662 20.7754 77.7863 20.6924 77.9873 20.6944C78.4419 20.6985 78.896 20.7015 79.3506 20.6929C79.5567 20.6889 79.6895 20.7815 79.7673 20.9571C80.1592 21.8464 80.5477 22.7378 80.9356 23.6291C81.3038 24.4749 81.669 25.3217 82.0367 26.1675C82.4473 27.1124 82.8595 28.0569 83.2702 29.0019C83.4439 29.4023 83.6197 29.8016 83.7864 30.205C83.9025 30.4849 83.7652 30.7046 83.457 30.7218C83.1888 30.7365 82.9186 30.7249 82.6494 30.7249V30.7259L82.6484 30.7254ZM79.7249 26.3198C79.3652 25.4862 79.0208 24.6865 78.647 23.8189C78.2757 24.6905 77.9348 25.4897 77.5812 26.3198H79.7249Z" fill="#005240"/>
<path d="M66.5164 40.6121C65.9355 40.6121 65.3547 40.6192 64.7743 40.608C64.5864 40.6045 64.4889 40.6652 64.4182 40.8429C64.1975 41.3951 63.954 41.9377 63.7288 42.4884C63.6277 42.7354 63.4777 42.8619 63.1944 42.8518C62.7236 42.8346 62.2518 42.8503 61.7806 42.8457C61.4164 42.8422 61.2745 42.6352 61.4164 42.3062C61.7917 41.4361 62.1771 40.5701 62.5529 39.7C62.965 38.7459 63.3671 37.7877 63.7803 36.8346C64.3273 35.5728 64.8763 34.312 65.44 33.0582C65.489 32.9499 65.6512 32.831 65.7663 32.8249C66.2613 32.7991 66.7599 32.7971 67.2548 32.8249C67.3756 32.8315 67.5453 32.957 67.5968 33.0709C68.159 34.317 68.7035 35.5713 69.2505 36.824C69.8874 38.2838 70.5228 39.7445 71.1572 41.2058C71.3239 41.59 71.4871 41.9762 71.6467 42.3639C71.7406 42.5921 71.6118 42.8316 71.3653 42.8381C70.785 42.8538 70.2031 42.8619 69.6243 42.829C69.5 42.8219 69.3384 42.6503 69.2773 42.5167C69.0293 41.9767 68.8055 41.425 68.5903 40.8707C68.5115 40.6672 68.4024 40.5989 68.1837 40.606C67.6286 40.6237 67.073 40.6121 66.5174 40.6121H66.5164ZM67.5867 38.4817C67.2165 37.6273 66.8644 36.8159 66.4891 35.9499C66.1164 36.823 65.7729 37.6263 65.4223 38.4473C65.4981 38.4645 65.5375 38.4807 65.5764 38.4807C66.2315 38.4822 66.8866 38.4817 67.5867 38.4817Z" fill="#005240"/>
<path d="M61.861 20.6139C63.104 20.6205 64.2183 21.0042 65.2113 21.7482C65.5073 21.9699 65.5335 22.142 65.3179 22.4482C65.0855 22.7777 64.8567 23.1098 64.6203 23.4362C64.4051 23.7329 64.2738 23.7511 63.9743 23.5441C63.2338 23.0334 62.4459 22.6634 61.5165 22.7534C61.3296 22.7717 61.1387 22.8324 60.9674 22.9119C60.7103 23.0308 60.5831 23.25 60.582 23.5415C60.581 23.8255 60.7053 24.0411 60.9588 24.1449C61.3372 24.2997 61.7226 24.442 62.115 24.5538C62.9914 24.8034 63.8955 24.975 64.6577 25.5216C65.2426 25.9407 65.6083 26.4858 65.7098 27.2187C65.8881 28.5089 65.484 29.5344 64.395 30.2602C63.845 30.6267 63.2161 30.7891 62.5656 30.8327C60.9083 30.9435 59.437 30.4596 58.1591 29.3932C57.851 29.1355 57.8399 28.9837 58.0985 28.677C58.3581 28.3692 58.6167 28.06 58.8768 27.7522C59.1213 27.4632 59.244 27.447 59.5264 27.6829C60.0274 28.101 60.5719 28.4659 61.2053 28.6137C61.8074 28.7544 62.4368 28.8253 63.0333 28.5438C63.306 28.4148 63.4545 28.1916 63.4551 27.8808C63.4551 27.567 63.3086 27.3382 63.0191 27.2395C62.4428 27.0426 61.8605 26.8619 61.2755 26.6903C60.575 26.4848 59.8759 26.2793 59.2784 25.8354C58.7405 25.4361 58.4445 24.9086 58.3278 24.2385C57.9636 22.141 59.632 20.7329 61.3811 20.6438C61.5407 20.6357 61.6998 20.6241 61.8594 20.6134L61.861 20.6139Z" fill="#005240"/>
<path d="M57.1066 32.6816C58.5537 32.7084 59.7947 33.1857 60.8358 34.1818C61.0888 34.4238 61.0974 34.5437 60.8777 34.7999C60.5822 35.1435 60.2867 35.4877 59.9892 35.8299C59.7624 36.0911 59.5846 36.0976 59.3285 35.8719C58.9361 35.5262 58.5184 35.2195 58.0138 35.0524C56.548 34.566 54.9968 35.222 54.5048 36.7774C54.1503 37.8995 54.2806 38.9615 55.0367 39.8892C55.6827 40.6824 56.5459 40.9243 57.543 40.7897C58.2239 40.6981 58.7618 40.3483 59.2624 39.9135C59.3321 39.8533 59.4053 39.7971 59.473 39.7343C59.6392 39.58 59.8033 39.5835 59.9609 39.7409C60.3049 40.0851 60.6509 40.4273 60.9863 40.7801C61.1378 40.9395 61.1055 41.1511 60.9176 41.3389C60.1614 42.095 59.3058 42.6624 58.2299 42.873C56.4692 43.2177 54.8907 42.8765 53.5522 41.6537C52.7779 40.9461 52.2915 40.0573 52.0733 39.0217C51.7197 37.3438 52.0733 35.8324 53.1401 34.5012C53.7598 33.7278 54.5756 33.21 55.5246 32.9453C56.0368 32.8026 56.5778 32.7661 57.1061 32.6816H57.1066Z" fill="#005240"/>
<path d="M43.2994 30.8813C40.6325 30.8438 39.1556 30.0142 38.1605 28.3652C37.6307 27.487 37.4327 26.5111 37.4852 25.4872C37.5645 23.9373 38.1676 22.6406 39.391 21.6738C40.4592 20.8296 41.6967 20.5082 43.0474 20.6023C44.3248 20.6919 45.439 21.1515 46.3613 22.0565C46.6038 22.2944 46.6194 22.4199 46.4002 22.6755C46.1052 23.0192 45.8087 23.3613 45.5158 23.706C45.3001 23.9591 45.1319 23.9758 44.8758 23.7587C44.498 23.4383 44.1101 23.1381 43.6399 22.9564C42.1013 22.3617 40.4219 23.1194 39.9809 24.8024C39.6768 25.963 39.8632 27.0477 40.7229 27.9405C41.2942 28.5342 42.018 28.7352 42.8317 28.6886C43.5934 28.6451 44.2056 28.2963 44.7592 27.8124C45.2577 27.3767 45.2541 27.3726 45.7249 27.8524C45.9719 28.1045 46.2224 28.353 46.4639 28.6101C46.6745 28.8349 46.6689 28.9715 46.4593 29.1897C45.3951 30.2977 44.1192 30.9096 43.2999 30.8802L43.2994 30.8813Z" fill="#005240"/>
<path d="M57.6112 17.0126C57.6475 17.2131 57.6667 17.3426 57.695 17.4707C57.7339 17.6468 57.7854 17.8204 57.8182 17.9976C57.8294 18.0563 57.8213 18.1398 57.7864 18.1818C57.5889 18.4202 57.449 18.7315 57.0854 18.7756C57.0621 18.7781 57.0389 18.7963 57.0197 18.812C56.6676 19.0965 56.3338 18.9552 55.9938 18.7781C55.3847 18.4602 55.0569 17.9212 54.7437 17.334C54.3154 16.5313 54.2063 15.6546 53.9972 14.7962C53.8477 14.1817 53.8467 13.5662 53.8396 12.9447C53.8366 12.6597 53.7729 12.3758 53.7663 12.0908C53.7608 11.8499 53.7967 11.6084 53.8164 11.367C53.8573 10.8649 53.8962 10.3623 53.9426 9.86068C53.9598 9.6734 53.8406 9.69314 53.7214 9.68555C52.8582 9.62987 51.996 9.55648 51.1323 9.51801C50.6196 9.49524 50.3842 8.71171 50.6115 8.36247C50.6494 8.30375 50.7236 8.23036 50.7822 8.22985C51.0661 8.22581 51.3505 8.24048 51.6343 8.25668C51.7156 8.26124 51.7949 8.30881 51.8763 8.31388C52.5299 8.35184 53.184 8.38524 53.8386 8.41764C54.026 8.42675 54.1649 8.41258 54.1916 8.15241C54.2401 7.67865 54.3305 7.20894 54.4199 6.74025C54.5018 6.31153 54.6114 5.88839 54.6972 5.46069C54.7548 5.1737 54.7776 4.87861 54.8432 4.59365C54.9781 4.00854 55.1023 3.41836 55.2877 2.84894C55.4266 2.42225 55.6362 2.01531 55.8474 1.61696C56.0181 1.29505 56.4459 1.24292 56.7409 1.46107C56.8803 1.56382 57.0379 1.64176 57.1864 1.73287C57.3273 1.81942 57.4672 1.9075 57.6612 2.02897C57.5076 2.13577 57.3914 2.21675 57.2667 2.30381C57.3288 2.59131 57.2278 2.69051 56.9081 2.62471C56.6343 2.56853 56.5181 2.6318 56.4353 2.94815C56.1888 3.88504 55.9347 4.82091 55.7266 5.76641C55.6135 6.27965 55.6286 6.82174 55.5074 7.33194C55.4337 7.64221 55.4418 7.94793 55.3963 8.25314C55.3695 8.43231 55.3907 8.51684 55.6014 8.51836C56.1888 8.52292 56.7767 8.53506 57.3632 8.56746C58.0743 8.60643 58.785 8.6616 59.4947 8.72386C59.8265 8.75271 60.1579 8.80181 60.4847 8.86508C60.9701 8.95973 61.5994 9.59444 61.4858 10.3081C61.3858 10.9363 61.264 11.5639 61.1049 12.1799C60.9009 12.9705 60.7367 13.7646 60.7155 14.5811C60.7105 14.7653 60.7999 14.9511 60.8332 15.1383C60.8524 15.2472 60.8746 15.3681 60.8463 15.4704C60.8044 15.6212 60.7382 15.7746 60.6458 15.8991C60.5811 15.9856 60.4574 16.0717 60.3549 16.0783C59.7447 16.1172 59.5381 15.9917 59.4285 15.3843C59.281 14.5664 59.1734 13.7459 59.4699 12.9163C59.6745 12.3439 59.7735 11.7329 59.9205 11.1397C59.969 10.9444 60.0341 10.7515 60.0675 10.5536C60.118 10.2535 60.0215 10.0976 59.729 9.99886C59.5629 9.94268 59.3896 9.8951 59.2159 9.87435C58.788 9.82373 58.3587 9.77109 57.9284 9.75489C57.3263 9.73262 56.7227 9.74275 56.1201 9.73971C55.8721 9.7387 55.6241 9.7473 55.3766 9.73718C55.2417 9.73161 55.1958 9.78779 55.1897 9.91028C55.1665 10.381 55.1276 10.8517 55.12 11.323C55.1104 11.9131 55.0842 12.5079 55.1407 13.093C55.2145 13.8588 55.271 14.6276 55.4847 15.3803C55.6686 16.0276 55.8554 16.6674 56.1529 17.2708C56.1969 17.3603 56.254 17.4459 56.3166 17.5238C56.5373 17.7956 56.7848 17.8042 57.0384 17.5583C57.2071 17.3948 57.3798 17.2343 57.6122 17.0146L57.6112 17.0126Z" fill="#00843E"/>
<path d="M70.4032 20.7339C71.573 20.7339 72.7428 20.7329 73.9126 20.7339C74.3955 20.7339 74.5076 20.8478 74.5086 21.3281C74.5091 21.6991 74.5117 22.0701 74.5076 22.4412C74.5036 22.8152 74.3935 22.9266 74.0252 22.9281C73.3014 22.9306 72.5776 22.9382 71.8543 22.924C71.6124 22.9195 71.5402 22.9918 71.5407 23.2368C71.5492 25.5474 71.5457 27.858 71.5457 30.1691C71.5457 30.6494 71.471 30.7249 70.9886 30.7274C70.5845 30.7294 70.1804 30.7299 69.7769 30.7274C69.3566 30.7243 69.2536 30.6206 69.2531 30.2066C69.2531 27.8874 69.2485 25.5682 69.2591 23.249C69.2601 22.9883 69.1854 22.9185 68.9333 22.924C68.2353 22.9392 67.5362 22.9306 66.8382 22.9286C66.3957 22.9276 66.3179 22.8496 66.3179 22.4174C66.3179 22.0124 66.3164 21.6075 66.3179 21.2031C66.3194 20.8665 66.4493 20.7349 66.7932 20.7344C67.9969 20.7319 69.2 20.7334 70.4037 20.7334L70.4032 20.7339Z" fill="#005240"/>
<path d="M48.1854 37.8506C48.1854 36.3584 48.1854 34.8663 48.1854 33.3741C48.1854 32.9804 48.2642 32.9019 48.6572 32.9009C49.1284 32.8999 49.5992 32.8989 50.0704 32.9009C50.3821 32.9024 50.4518 32.9733 50.4669 33.2891C50.47 33.3478 50.4689 33.407 50.4689 33.4663C50.4689 36.3999 50.4689 39.3336 50.4689 42.2673C50.4689 42.7871 50.4073 42.8473 49.8881 42.8473C49.4673 42.8473 49.0466 42.8498 48.6263 42.8463C48.3011 42.8438 48.1859 42.7278 48.1859 42.4024C48.1844 40.8849 48.1854 39.3675 48.1854 37.8501V37.8506Z" fill="#005240"/>
<path d="M32.0126 21.0118C31.6918 20.7734 31.3363 20.5973 31.1741 20.1964C31.1559 20.1508 31.1691 20.0881 31.1842 20.038C31.1878 20.0263 31.2595 20.0283 31.2974 20.0354C31.555 20.083 31.81 20.161 32.0697 20.1782C33.144 20.2495 33.9077 19.6943 34.4931 18.8723C34.7406 18.5251 34.8129 18.0842 34.7765 17.6454C34.7336 17.1316 34.6037 16.6437 34.4204 16.1588C34.1668 15.4876 33.9315 14.8028 33.7693 14.1048C33.6087 13.4129 33.4567 12.7073 33.5279 11.9841C33.5824 11.4334 33.6052 10.8751 33.7163 10.3355C33.8027 9.91591 33.9739 9.50542 34.1623 9.11771C34.3477 8.73607 34.5664 8.35899 34.8346 8.03302C35.1609 7.6362 35.5478 7.28695 35.9261 6.9367C35.9907 6.87646 36.1741 6.86584 36.2524 6.91392C36.5868 7.11891 36.9964 7.28189 36.9631 7.78703C36.9565 7.88928 36.9297 8.00215 36.8767 8.08769C36.6903 8.38936 36.51 8.69862 36.2857 8.97093C36.1418 9.14555 35.9251 9.25943 35.7023 9.43102C35.723 9.32878 35.7337 9.27664 35.7468 9.21236C35.4917 9.20426 35.5003 9.4457 35.4468 9.57173C35.2275 10.0875 35.0048 10.6078 34.8619 11.1479C34.6578 11.9213 34.6512 12.7119 34.8568 13.4954C34.978 13.9575 35.0755 14.4262 35.2154 14.8823C35.4043 15.4973 35.6387 16.0986 35.8251 16.7146C36.0463 17.4465 36.1201 18.1789 35.9342 18.9502C35.6877 19.9742 35.0578 20.6357 34.1658 21.1019C34.08 21.1469 33.9799 21.1834 33.885 21.1884C33.4127 21.2122 32.9405 21.2264 32.4677 21.237C32.3687 21.2391 32.2606 21.231 32.1727 21.191C32.106 21.1606 32.0651 21.073 32.0131 21.0113L32.0126 21.0118Z" fill="#00843E"/>
<path d="M94.4454 14.0815C94.4792 15.1191 93.5337 15.9381 92.578 15.9193C91.6042 15.9006 90.7915 15.072 90.7854 14.0719C90.7794 13.0651 91.6431 12.1996 92.6553 12.2209C93.6403 12.2411 94.4868 13.0707 94.4454 14.0815ZM92.6194 12.5742C91.7618 12.5397 91.1122 13.2929 91.1188 14.0769C91.1254 14.8686 91.7436 15.5696 92.6321 15.5696C93.3367 15.5696 94.1054 14.9905 94.1115 14.0704C94.1171 13.217 93.4251 12.5322 92.6194 12.5747V12.5742Z" fill="white"/>
<path d="M61.5214 7.03387C61.9578 7.07437 62.2937 7.16699 62.4826 7.53497C62.5013 7.57141 62.5266 7.61089 62.5594 7.63367C62.8084 7.80525 62.7134 8.00771 62.6165 8.21169C62.5296 8.3934 62.4028 8.49868 62.1841 8.47742C62.078 8.4673 61.9613 8.47742 61.8608 8.51184C61.3249 8.69659 60.791 8.32507 60.7042 7.76881C60.6718 7.56331 60.8102 7.25608 61.0032 7.18319C61.188 7.11283 61.384 7.07234 61.5214 7.03387Z" fill="#00843E"/>
<path d="M92.2632 14.3747C92.2632 14.522 92.2592 14.6556 92.2642 14.7892C92.2698 14.9304 92.2294 15.0094 92.0682 15.0084C91.9167 15.0069 91.8293 14.9684 91.8329 14.7963C91.843 14.2917 91.8485 13.7876 91.8505 13.2829C91.851 13.1103 91.9238 13.045 92.0955 13.0536C92.3299 13.0653 92.5653 13.0567 92.8001 13.0597C93.1502 13.0648 93.384 13.2191 93.483 13.5077C93.5633 13.741 93.4613 13.9789 93.1875 14.1935C93.1678 14.2092 93.1466 14.2228 93.1082 14.2497C93.2734 14.4896 93.43 14.7163 93.6053 14.9699C93.3244 15.0297 93.1128 15.058 92.9789 14.7933C92.9305 14.6976 92.8456 14.6217 92.787 14.5301C92.6653 14.3398 92.5021 14.2881 92.2627 14.3742L92.2632 14.3747ZM92.2875 13.4525C92.2359 13.909 92.2986 13.9733 92.7158 13.9242C92.7653 13.9186 92.8259 13.9166 92.8597 13.8873C92.933 13.8235 93.0496 13.738 93.0426 13.6722C93.0345 13.5932 92.9254 13.4773 92.8446 13.4626C92.6688 13.4307 92.4834 13.4525 92.287 13.4525H92.2875Z" fill="white"/>
</svg>
