<svg id="Layer_1" data-name="Layer 1" xmlns="http://www.w3.org/2000/svg" xmlns:xlink="http://www.w3.org/1999/xlink" viewBox="0 0 47.58 32.76"><defs><style>.cls-1,.cls-2,.cls-3,.cls-4{fill-rule:evenodd;}.cls-1{fill:url(#GradientFill_1);}.cls-2{fill:url(#GradientFill_1-2);}.cls-3{fill:url(#GradientFill_2);}.cls-4{fill:url(#GradientFill_1-3);}</style><linearGradient id="GradientFill_1" x1="42.62" y1="12.11" x2="29.27" y2="0.71" gradientUnits="userSpaceOnUse"><stop offset="0" stop-color="#828ec7"/><stop offset="1" stop-color="#8ad4e1"/></linearGradient><linearGradient id="GradientFill_1-2" x1="47.06" y1="31.55" x2="32.52" y2="17.68" xlink:href="#GradientFill_1"/><linearGradient id="GradientFill_2" x1="14.74" y1="8.71" x2="4.71" y2="29.88" gradientUnits="userSpaceOnUse"><stop offset="0" stop-color="#8ad4e1"/><stop offset="1" stop-color="#828ec7"/></linearGradient><linearGradient id="GradientFill_1-3" x1="16.91" y1="5.82" x2="28.53" y2="31.74" xlink:href="#GradientFill_1"/></defs><title>Aircards colour symbol</title><path class="cls-1" d="M40.83,21a11.33,11.33,0,0,0,5-4.28,10.92,10.92,0,0,0-.49-12.44A11.54,11.54,0,0,0,40.58.7C38.49-.14,36.9,0,34.73,0H22.29s0,0,0,0l1.3,2.27c.29.51,1.63,3.17,2.11,3.17h5.73c2.2,0,5.94-.36,7.84.71a5.6,5.6,0,0,1,1.84,1.65,5.56,5.56,0,0,1,1,3.35c-.1,2.52-1.83,4.06-4,5Z"/><path class="cls-2" d="M41.25,32.76h6.29L38.08,16.23c-.77.05-1.53.14-2.42.14-1.42,0-3.22-.06-3.87-.06a5.7,5.7,0,0,0,.58,1.08Z"/><path class="cls-3" d="M13.28,6.12C8.89,15,4.44,23.89,0,32.76H6.09c3.41-6.82,6.83-13.58,10.27-20.41Z"/><path class="cls-4" d="M23.92,27.28l2.69,5.48h6.14L30,27.28ZM16.39,0,13.28,6.12l7.8,15.77h6.24Z"/></svg>