<svg width="30" height="30" viewBox="0 0 30 30" fill="none" xmlns="http://www.w3.org/2000/svg">
<circle cx="15" cy="15" r="15" fill="white"/>
<path fill-rule="evenodd" clip-rule="evenodd" d="M19.773 18.7123L16.0607 15L19.773 11.2877C19.9682 11.0924 19.9682 10.7759 19.773 10.5806L19.4194 10.227C19.2242 10.0318 18.9076 10.0318 18.7123 10.227L15 13.9393L11.2877 10.227C11.0924 10.0318 10.7758 10.0318 10.5806 10.227L10.227 10.5806C10.0318 10.7759 10.0318 11.0924 10.227 11.2877L13.9393 15L10.227 18.7123C10.0318 18.9076 10.0318 19.2242 10.227 19.4194L10.5806 19.773C10.7758 19.9682 11.0924 19.9682 11.2877 19.773L15 16.0607L18.7123 19.773C18.9076 19.9682 19.2242 19.9682 19.4194 19.773L19.773 19.4194C19.9682 19.2242 19.9682 18.9076 19.773 18.7123Z" fill="#005240"/>
</svg>
