<svg width="165" height="165" viewBox="0 0 165 165" fill="none" xmlns="http://www.w3.org/2000/svg">
<g clip-path="url(#clip0_1303_1521)">
<path fill-rule="evenodd" clip-rule="evenodd" d="M119.79 33.8318H123.878C126.524 33.8318 128.668 35.9762 128.668 38.6215V123.879C128.668 126.524 126.524 128.668 123.878 128.668H83.6447C80.9994 128.668 78.855 126.524 78.855 123.879V38.6215C78.855 35.9762 80.9994 33.8318 83.6447 33.8318H88.6909C88.5278 34.1136 88.4344 34.4409 88.4344 34.79C88.4344 35.8481 89.2922 36.7059 90.3503 36.7059H118.131C119.189 36.7059 120.047 35.8481 120.047 34.79C120.047 34.4409 119.953 34.1136 119.79 33.8318ZM75.0232 38.6215C75.0232 33.86 78.8832 30 83.6447 30H123.878C128.64 30 132.5 33.86 132.5 38.6215V123.879C132.5 128.64 128.64 132.5 123.878 132.5H83.6447C78.8832 132.5 75.0232 128.64 75.0232 123.879V38.6215Z" fill="white" fill-opacity="0.32"/>
<path fill-rule="evenodd" clip-rule="evenodd" d="M33.8318 87.7327L33.8318 83.6449C33.8318 80.9996 35.9762 78.8551 38.6215 78.8551L123.878 78.8551C126.524 78.8551 128.668 80.9996 128.668 83.6449L128.668 123.879C128.668 126.524 126.524 128.668 123.879 128.668L38.6215 128.668C35.9762 128.668 33.8318 126.524 33.8318 123.879L33.8318 118.833C34.1135 118.996 34.4406 119.089 34.7894 119.089C35.8475 119.089 36.7053 118.231 36.7053 117.173L36.7053 89.3925C36.7053 88.3344 35.8475 87.4766 34.7894 87.4766C34.4406 87.4766 34.1135 87.5698 33.8318 87.7327ZM38.6215 132.5C33.86 132.5 30 128.64 30 123.879L30 83.6449C30 78.8833 33.86 75.0234 38.6215 75.0234L123.878 75.0234C128.64 75.0234 132.5 78.8833 132.5 83.6449L132.5 123.879C132.5 128.64 128.64 132.5 123.879 132.5L38.6215 132.5Z" fill="white"/>
<path fill-rule="evenodd" clip-rule="evenodd" d="M64.9078 43.2825C65.2217 42.872 65.1435 42.2848 64.733 41.9709L58.0445 36.8548C57.6341 36.5409 57.0468 36.6191 56.7329 37.0296C56.4189 37.44 56.4972 38.0272 56.9076 38.3412L61.8289 42.1055C53.2621 43.4403 47.3941 45.5911 43.0566 49.2135C38.3531 53.1417 35.5758 58.6964 32.9962 66.4017C32.8322 66.8917 33.0964 67.4219 33.5864 67.5859C34.0765 67.75 34.6067 67.4857 34.7707 66.9957C37.3209 59.3783 39.9624 54.2357 44.2561 50.6498C48.2069 47.3503 53.6635 45.2807 62.027 43.9686L58.3054 48.8341C57.9915 49.2446 58.0697 49.8318 58.4801 50.1458C58.8906 50.4597 59.4778 50.3815 59.7917 49.971L64.9078 43.2825Z" fill="white"/>
</g>
<defs>
<clipPath id="clip0_1303_1521">
<rect width="165" height="165" fill="white"/>
</clipPath>
</defs>
</svg>
