<svg width="159" height="17" viewBox="0 0 159 17" fill="none" xmlns="http://www.w3.org/2000/svg">
<path fill-rule="evenodd" clip-rule="evenodd" d="M105.588 8.81566C106.405 8.79257 107.517 8.85002 108.458 8.74696C110.024 8.118 110.751 6.4672 109.821 4.97616C109.275 4.10254 108.339 3.88676 107.379 3.8708C106.476 3.85507 103.177 3.91061 102.784 3.91649C102.659 3.91783 102.538 3.7094 102.476 3.62297C102.257 3.32004 101.871 2.70517 101.202 1.45911L107.913 1.38743C112.123 1.34247 114.494 6.91853 111.104 9.99981C110.706 10.3618 110.196 10.6666 109.722 10.9042L112.827 16.2052L109.944 16.2317L105.587 8.81483L105.588 8.81566Z" fill="white"/>
<path fill-rule="evenodd" clip-rule="evenodd" d="M102.062 13.8222L103.343 16.2913L106.114 16.2591L104.84 13.7815L102.063 13.823L102.062 13.8222ZM94.0079 16.391L98.5696 7.08692L100.8 11.3884L103.593 11.3586L98.5166 1.4861L97.1503 4.28701L91.2363 16.4172L94.0079 16.3901L94.0079 16.391Z" fill="white"/>
<path d="M118.557 11.6907C118.32 11.5782 118.131 11.4263 117.989 11.2325C117.846 11.0395 117.774 10.8255 117.771 10.5904C117.767 10.2125 117.917 9.9014 118.221 9.65715C118.525 9.41375 118.937 9.25375 119.458 9.17969L120.814 8.97664L120.811 8.67563C120.808 8.36025 120.709 8.11946 120.515 7.95241C120.321 7.78535 120.027 7.70393 119.631 7.70816C119.339 7.71128 119.1 7.77133 118.915 7.88747C118.73 8.00444 118.613 8.14269 118.563 8.30389C118.541 8.37263 118.514 8.42026 118.482 8.44682C118.451 8.47336 118.41 8.48649 118.358 8.48704L118.238 8.48832C118.187 8.48887 118.142 8.47075 118.104 8.43394C118.067 8.39714 118.048 8.35252 118.047 8.30095C118.046 8.17496 118.102 8.02638 118.214 7.85691C118.326 7.68658 118.503 7.53755 118.742 7.40816C118.981 7.2796 119.275 7.21305 119.625 7.20931C120.238 7.20276 120.675 7.34439 120.936 7.63334C121.197 7.92229 121.329 8.27688 121.334 8.69457L121.364 11.5558C121.365 11.6133 121.349 11.6592 121.314 11.6942C121.28 11.7292 121.235 11.7466 121.177 11.7472L121.031 11.7488C120.973 11.7494 120.927 11.733 120.892 11.6987C120.857 11.6644 120.84 11.6189 120.839 11.5614L120.835 11.1573C120.711 11.348 120.528 11.5098 120.286 11.6443C120.043 11.7788 119.722 11.8482 119.321 11.8525C119.046 11.8554 118.79 11.8006 118.554 11.689L118.557 11.6907ZM120.431 10.9316C120.697 10.6539 120.828 10.2568 120.822 9.74099L120.819 9.44929L119.713 9.61586C119.243 9.68429 118.889 9.79631 118.651 9.95361C118.411 10.1109 118.293 10.3067 118.296 10.5417C118.299 10.8055 118.411 11.0073 118.633 11.1487C118.855 11.2892 119.112 11.3583 119.405 11.3552C119.823 11.3507 120.165 11.2092 120.432 10.9316L120.431 10.9316Z" fill="white"/>
<path d="M122.624 6.29321C122.589 6.25891 122.572 6.21343 122.571 6.15594L122.568 5.82957C122.567 5.77207 122.584 5.72454 122.618 5.68697C122.652 5.64939 122.698 5.63031 122.755 5.62969L123.081 5.62621C123.139 5.62559 123.186 5.64369 123.224 5.68049C123.262 5.7173 123.281 5.76445 123.281 5.82194L123.285 6.14832C123.286 6.20581 123.267 6.25167 123.231 6.28673C123.194 6.3218 123.147 6.33921 123.089 6.33983L122.763 6.34331C122.705 6.34393 122.659 6.3275 122.624 6.29321ZM122.777 11.6807C122.742 11.6464 122.724 11.6009 122.724 11.5434L122.68 7.45281C122.679 7.39531 122.696 7.34947 122.73 7.31444C122.764 7.2794 122.81 7.262 122.867 7.26139L123.013 7.25982C123.071 7.25921 123.117 7.27563 123.152 7.30993C123.187 7.34422 123.204 7.3897 123.205 7.4472L123.249 11.5378C123.249 11.5953 123.233 11.6412 123.198 11.6762C123.164 11.7112 123.119 11.7286 123.061 11.7293L122.915 11.7308C122.857 11.7314 122.812 11.715 122.777 11.6807Z" fill="white"/>
<path d="M124.693 11.6599C124.658 11.6256 124.641 11.5801 124.64 11.5226L124.597 7.44041C124.596 7.38291 124.613 7.33538 124.647 7.29781C124.681 7.26023 124.727 7.24114 124.784 7.24053L124.922 7.23906C124.979 7.23844 125.027 7.25654 125.065 7.29335C125.102 7.33015 125.121 7.3773 125.122 7.4348L125.126 7.8305C125.328 7.43259 125.716 7.23142 126.288 7.22531L126.606 7.22191C126.664 7.2213 126.71 7.23772 126.745 7.27202C126.78 7.30632 126.797 7.35179 126.798 7.40929L126.799 7.52935C126.8 7.58685 126.783 7.63269 126.749 7.66773C126.715 7.70276 126.669 7.72016 126.612 7.72077L126.242 7.72472C125.898 7.7284 125.628 7.83191 125.429 8.03445C125.23 8.23698 125.133 8.51031 125.136 8.85444L125.165 11.5187C125.165 11.5762 125.147 11.622 125.11 11.6571C125.074 11.6922 125.026 11.7096 124.969 11.7102L124.831 11.7117C124.774 11.7123 124.728 11.6959 124.693 11.6616L124.693 11.6599Z" fill="white"/>
<path d="M127.834 11.2444C127.504 10.9012 127.327 10.4177 127.303 9.79305L127.291 9.44901L127.296 9.1048C127.306 8.47977 127.473 7.9926 127.796 7.64245C128.119 7.2923 128.578 7.11404 129.174 7.10768C129.552 7.10364 129.875 7.16784 130.142 7.29944C130.41 7.43103 130.611 7.60139 130.745 7.80883C130.879 8.01627 130.952 8.23196 130.966 8.45505C130.973 8.50657 130.956 8.55072 130.916 8.58835C130.876 8.62599 130.831 8.64508 130.779 8.64563L130.659 8.64691C130.602 8.64752 130.56 8.63528 130.534 8.60934C130.508 8.58341 130.48 8.5372 130.451 8.46817C130.332 8.15402 130.17 7.93082 129.962 7.79858C129.755 7.66635 129.494 7.60149 129.178 7.60486C128.766 7.60926 128.439 7.73706 128.198 7.98909C127.957 8.24112 127.831 8.62469 127.82 9.14064L127.814 9.44173L127.826 9.74265C127.848 10.2582 127.983 10.639 128.229 10.8859C128.475 11.1327 128.805 11.2535 129.217 11.2491C129.533 11.2457 129.792 11.1753 129.997 11.0386C130.202 10.902 130.36 10.6754 130.471 10.3588C130.499 10.29 130.526 10.2423 130.551 10.2158C130.577 10.1893 130.619 10.1762 130.675 10.1756L130.795 10.1743C130.847 10.1738 130.893 10.1919 130.934 10.2287C130.974 10.2654 130.992 10.3101 130.987 10.3617C130.977 10.5851 130.909 10.8023 130.779 11.0125C130.649 11.2228 130.452 11.3974 130.188 11.5347C129.923 11.6719 129.601 11.743 129.223 11.7471C128.627 11.7534 128.165 11.585 127.834 11.2418L127.834 11.2444Z" fill="white"/>
<path d="M132.573 11.5409C132.337 11.4284 132.148 11.2765 132.005 11.0827C131.863 10.8897 131.79 10.6757 131.788 10.4407C131.784 10.0627 131.933 9.75162 132.238 9.50737C132.541 9.26397 132.954 9.10397 133.475 9.02991L134.831 8.82686L134.828 8.52585C134.824 8.21047 134.725 7.96968 134.531 7.80263C134.338 7.63557 134.043 7.55415 133.648 7.55838C133.355 7.5615 133.117 7.62155 132.932 7.73769C132.747 7.85466 132.629 7.99291 132.579 8.15411C132.557 8.22284 132.531 8.27048 132.499 8.29704C132.468 8.32358 132.427 8.33671 132.375 8.33726L132.255 8.33854C132.203 8.33909 132.158 8.32097 132.121 8.28416C132.083 8.24736 132.064 8.20274 132.063 8.15117C132.062 8.02518 132.118 7.8766 132.23 7.70712C132.343 7.5368 132.52 7.38777 132.758 7.25838C132.998 7.12982 133.292 7.06327 133.642 7.05953C134.255 7.05298 134.692 7.19461 134.953 7.48356C135.214 7.77251 135.346 8.1271 135.35 8.54479L135.381 11.406C135.382 11.4635 135.365 11.5094 135.331 11.5444C135.297 11.5795 135.251 11.5968 135.194 11.5975L135.047 11.599C134.99 11.5996 134.944 11.5832 134.909 11.5489C134.874 11.5146 134.856 11.4691 134.856 11.4117L134.852 11.0075C134.728 11.1982 134.544 11.36 134.302 11.4945C134.06 11.629 133.738 11.6984 133.338 11.7027C133.063 11.7056 132.807 11.6509 132.571 11.5392L132.573 11.5409ZM134.447 10.7818C134.713 10.5041 134.844 10.107 134.839 9.59121L134.836 9.29951L133.729 9.46608C133.26 9.53451 132.906 9.64653 132.667 9.80383C132.428 9.96113 132.31 10.1569 132.312 10.3919C132.315 10.6557 132.427 10.8575 132.649 10.9989C132.872 11.1394 133.129 11.2085 133.421 11.2054C133.84 11.201 134.182 11.0595 134.448 10.7818L134.447 10.7818Z" fill="white"/>
<path d="M136.792 11.5308C136.757 11.4965 136.74 11.4511 136.739 11.3936L136.696 7.31138C136.695 7.25388 136.712 7.20635 136.746 7.16878C136.78 7.13121 136.826 7.11212 136.883 7.1115L137.021 7.11003C137.078 7.10942 137.126 7.12751 137.164 7.16432C137.201 7.20112 137.22 7.24827 137.221 7.30577L137.225 7.70147C137.427 7.30357 137.815 7.1024 138.387 7.09628L138.705 7.09289C138.763 7.09227 138.809 7.1087 138.844 7.14299C138.879 7.17729 138.896 7.22277 138.897 7.28026L138.898 7.40033C138.899 7.45782 138.882 7.50366 138.848 7.5387C138.814 7.57373 138.768 7.59113 138.711 7.59175L138.341 7.59569C137.997 7.59937 137.727 7.70288 137.528 7.90542C137.329 8.10795 137.232 8.38129 137.235 8.72541L137.264 11.3897C137.264 11.4472 137.246 11.493 137.209 11.5281C137.173 11.5631 137.125 11.5806 137.068 11.5812L136.93 11.5826C136.873 11.5833 136.827 11.5668 136.792 11.5325L136.792 11.5308Z" fill="white"/>
<path d="M139.861 11.0294C139.561 10.6284 139.4 10.1389 139.377 9.5607L139.366 9.32066L139.371 9.0796C139.382 8.50108 139.533 8.00816 139.824 7.60085C140.115 7.19354 140.569 6.98658 141.188 6.97997C141.807 6.97336 142.297 7.19476 142.64 7.6435L142.618 5.60663C142.617 5.54914 142.634 5.5033 142.668 5.46826C142.702 5.43323 142.748 5.41583 142.805 5.41521L142.952 5.41365C143.009 5.41304 143.055 5.42946 143.09 5.46376C143.125 5.49805 143.142 5.54353 143.143 5.60103L143.204 11.3244C143.205 11.3819 143.188 11.4277 143.154 11.4627C143.12 11.4978 143.074 11.5152 143.017 11.5158L142.87 11.5174C142.813 11.518 142.767 11.5015 142.732 11.4673C142.697 11.433 142.68 11.3875 142.679 11.33L142.675 10.9258C142.347 11.3817 141.869 11.6135 141.238 11.6202C140.607 11.6269 140.16 11.4296 139.861 11.0286L139.861 11.0294ZM142.301 10.6592C142.527 10.3558 142.647 10.001 142.66 9.59413C142.665 9.53657 142.666 9.42494 142.664 9.25922C142.663 9.09349 142.658 8.98107 142.652 8.92448C142.644 8.67849 142.587 8.44571 142.482 8.22613C142.376 8.00655 142.22 7.82641 142.012 7.68572C141.804 7.54503 141.549 7.47588 141.244 7.47913C140.78 7.48409 140.443 7.63483 140.231 7.93221C140.019 8.2296 139.907 8.61048 139.895 9.07486L139.889 9.31592C139.895 9.8486 140.002 10.2846 140.212 10.6232C140.422 10.9617 140.779 11.1287 141.283 11.1233C141.736 11.1185 142.075 10.9644 142.301 10.6609L142.301 10.6592Z" fill="white"/>
<path d="M145.081 11.3909C144.824 11.2676 144.631 11.1268 144.5 10.9675C144.37 10.8082 144.304 10.6804 144.303 10.5831C144.302 10.5316 144.322 10.4899 144.361 10.4582C144.401 10.4265 144.444 10.41 144.489 10.4095L144.618 10.4081C144.658 10.4077 144.691 10.4141 144.717 10.4282C144.743 10.4423 144.773 10.4724 144.808 10.5177C144.936 10.6939 145.091 10.8318 145.273 10.9296C145.454 11.0275 145.702 11.0756 146.018 11.0722C146.373 11.0684 146.659 10.9977 146.875 10.8609C147.091 10.7242 147.198 10.5294 147.196 10.2774C147.194 10.1227 147.148 9.99719 147.058 9.9009C146.968 9.80461 146.824 9.7216 146.626 9.65183C146.427 9.58208 146.133 9.50404 145.742 9.41604C145.231 9.30734 144.881 9.15295 144.693 8.95454C144.505 8.75614 144.409 8.50179 144.406 8.19317C144.403 7.98094 144.46 7.77993 144.575 7.59013C144.691 7.39947 144.863 7.24288 145.094 7.12033C145.325 6.9978 145.604 6.93393 145.93 6.93044C146.274 6.92677 146.565 6.98286 146.805 7.09699C147.044 7.21198 147.223 7.34621 147.342 7.49969C147.461 7.65317 147.521 7.77853 147.522 7.87576C147.522 7.92734 147.504 7.96897 147.467 8.00065C147.43 8.03233 147.387 8.04887 147.334 8.04943L147.206 8.0508C147.125 8.05166 147.062 8.01512 147.016 7.9412C146.899 7.77079 146.767 7.64197 146.621 7.55474C146.474 7.46753 146.246 7.42514 145.936 7.42845C145.604 7.432 145.353 7.50317 145.182 7.64284C145.012 7.78249 144.927 7.96351 144.93 8.18673C144.931 8.32455 144.967 8.43832 145.037 8.52975C145.107 8.62033 145.236 8.70351 145.426 8.77928C145.616 8.8542 145.892 8.93075 146.254 9.00637C146.787 9.12075 147.165 9.27739 147.384 9.47545C147.604 9.67352 147.715 9.9387 147.719 10.271C147.721 10.506 147.658 10.7215 147.528 10.9174C147.398 11.1133 147.205 11.2701 146.949 11.3878C146.692 11.5047 146.383 11.5655 146.022 11.5694C145.661 11.5732 145.336 11.5133 145.079 11.39L145.081 11.3909Z" fill="white"/>
<path d="M148.815 11.4026C148.78 11.3683 148.763 11.3229 148.762 11.2654L148.758 10.8528C148.757 10.7953 148.773 10.7477 148.808 10.7102C148.842 10.6726 148.887 10.6535 148.945 10.6529L149.358 10.6485C149.415 10.6479 149.463 10.666 149.5 10.7028C149.538 10.7396 149.557 10.7867 149.557 10.8442L149.562 11.2568C149.562 11.3143 149.544 11.3602 149.508 11.3952C149.471 11.4303 149.424 11.4477 149.366 11.4483L148.953 11.4528C148.896 11.4534 148.85 11.4369 148.815 11.4026Z" fill="white"/>
<path d="M151.08 10.996C150.75 10.6528 150.573 10.1693 150.549 9.54464L150.536 9.2006L150.541 8.85638C150.551 8.23136 150.718 7.7442 151.041 7.39404C151.364 7.04389 151.824 6.86562 152.419 6.85927C152.797 6.85523 153.12 6.91943 153.388 7.05102C153.655 7.18262 153.856 7.35298 153.99 7.56042C154.124 7.76785 154.198 7.98354 154.212 8.20664C154.218 8.25815 154.201 8.30231 154.162 8.33994C154.121 8.37758 154.076 8.39666 154.024 8.39721L153.904 8.3985C153.847 8.39911 153.805 8.38687 153.78 8.36093C153.754 8.33499 153.726 8.28878 153.696 8.21976C153.578 7.90561 153.416 7.6824 153.208 7.55017C153 7.41793 152.739 7.35307 152.424 7.35644C152.011 7.36085 151.684 7.48865 151.443 7.74068C151.203 7.99271 151.076 8.37627 151.065 8.89222L151.06 9.19332L151.071 9.49424C151.094 10.0098 151.228 10.3906 151.474 10.6374C151.72 10.8843 152.05 11.0051 152.462 11.0006C152.778 10.9973 153.038 10.9269 153.242 10.7902C153.447 10.6536 153.606 10.4269 153.716 10.1103C153.744 10.0416 153.771 9.99392 153.797 9.96743C153.822 9.94094 153.863 9.92782 153.921 9.9272L154.041 9.92592C154.092 9.92537 154.138 9.94349 154.179 9.98025C154.219 10.017 154.238 10.0617 154.232 10.1133C154.223 10.3366 154.154 10.5539 154.024 10.7641C153.895 10.9744 153.698 11.149 153.433 11.2863C153.168 11.4235 152.847 11.4946 152.469 11.4987C151.873 11.505 151.41 11.3366 151.08 10.9934L151.08 10.996Z" fill="white"/>
<path d="M155.69 10.9205C155.356 10.5605 155.178 10.0914 155.155 9.51236L155.142 9.15142L155.147 8.79029C155.158 8.21177 155.326 7.73811 155.652 7.37102C155.977 7.00393 156.438 6.81719 157.034 6.81084C157.629 6.80448 158.094 6.98132 158.428 7.34137C158.761 7.70142 158.939 8.17138 158.963 8.74953C158.969 8.80696 158.973 8.927 158.975 9.11048C158.977 9.29396 158.975 9.41406 158.971 9.47161C158.96 10.0501 158.792 10.5238 158.466 10.8909C158.14 11.258 157.679 11.4447 157.083 11.4511C156.487 11.4574 156.023 11.2806 155.69 10.9205ZM158.058 10.5511C158.305 10.288 158.433 9.91538 158.446 9.43409C158.451 9.37653 158.453 9.27081 158.451 9.11608C158.449 8.96135 158.445 8.85569 158.439 8.79825C158.417 8.31733 158.28 7.94757 158.027 7.68981C157.775 7.43206 157.446 7.30535 157.039 7.30969C156.632 7.31404 156.306 7.44775 156.059 7.71084C155.812 7.97477 155.684 8.34653 155.671 8.82782L155.666 9.14583L155.678 9.46365C155.7 9.94458 155.837 10.3143 156.089 10.5721C156.342 10.8298 156.671 10.9566 157.078 10.9522C157.485 10.9479 157.811 10.8142 158.058 10.5511Z" fill="white"/>
<path d="M87.9332 8.69751H86.9808V12.4812H87.9332V8.69751Z" fill="white"/>
<path d="M89.3222 10.1063H85.5916V11.0722H89.3222V10.1063Z" fill="white"/>
<path d="M2.54445 8.55659C2.32322 8.41724 2.06277 8.34741 1.76308 8.34741C1.45889 8.34741 1.19843 8.42283 0.981701 8.57365C0.823335 8.6839 0.704119 8.82174 0.622203 8.98576V8.67649C0.622203 8.57142 0.595516 8.49266 0.54278 8.44004C0.489724 8.38743 0.41255 8.36112 0.31094 8.36112C0.214151 8.36112 0.138267 8.38743 0.0829598 8.44004C0.0276522 8.49266 0 8.57142 0 8.67649V12.7153C0 12.8158 0.0276522 12.8936 0.0829598 12.9484C0.138267 13.0033 0.214154 13.0307 0.31094 13.0307C0.41255 13.0307 0.491012 13.0033 0.546316 12.9484C0.601621 12.8936 0.629276 12.8158 0.629276 12.7153V11.176C0.711271 11.3373 0.830487 11.4738 0.988774 11.584C1.2055 11.7348 1.46339 11.8102 1.76307 11.8102C2.06276 11.8102 2.32418 11.7405 2.54799 11.601C2.77147 11.4617 2.94446 11.2606 3.06665 10.9977C3.18852 10.7348 3.24994 10.4274 3.24994 10.0754C3.24994 9.71888 3.18756 9.41149 3.06312 9.15304C2.93868 8.89491 2.76568 8.6961 2.54445 8.55659L2.54445 8.55659ZM2.48915 10.7543C2.40619 10.9371 2.28978 11.0765 2.13994 11.1725C1.99009 11.2685 1.81613 11.3164 1.61806 11.3164C1.31387 11.3164 1.07174 11.2103 0.891988 10.9977C0.712239 10.785 0.622203 10.4777 0.622203 10.0754C0.622203 9.80578 0.662397 9.57938 0.743108 9.39651C0.823819 9.21379 0.939255 9.0754 1.0891 8.98165C1.23862 8.88806 1.41515 8.84119 1.61806 8.84119C1.92225 8.84119 2.16438 8.94642 2.34413 9.15655C2.52387 9.36685 2.61359 9.67313 2.61359 10.0754C2.61359 10.3452 2.57211 10.5714 2.48915 10.7543Z" fill="white"/>
<path d="M6.35449 8.55994C6.11011 8.41836 5.822 8.34741 5.49016 8.34741C5.24128 8.34741 5.01651 8.38743 4.81586 8.46747C4.61553 8.54751 4.44383 8.66278 4.30073 8.81377C4.15797 8.96459 4.04864 9.14619 3.97243 9.35888C3.89622 9.57141 3.85828 9.81041 3.85828 10.0754C3.85828 10.4274 3.92516 10.7337 4.05893 10.9942C4.19237 11.2547 4.38144 11.456 4.62583 11.5977C4.87021 11.7394 5.15832 11.8102 5.49016 11.8102C5.73904 11.8102 5.96381 11.7702 6.16446 11.6902C6.36479 11.6103 6.5365 11.4949 6.67959 11.344C6.82236 11.193 6.93201 11.0103 7.00789 10.7954C7.0841 10.5806 7.12205 10.3405 7.12205 10.0754C7.12205 9.72351 7.05516 9.41835 6.92139 9.1599C6.78763 8.90177 6.59888 8.70168 6.35449 8.55994ZM6.36478 10.7543C6.28407 10.9371 6.16896 11.0765 6.01912 11.1725C5.86927 11.2685 5.69306 11.3164 5.49016 11.3164C5.19047 11.3164 4.94963 11.2103 4.76763 10.9977C4.58531 10.785 4.49463 10.4777 4.49463 10.0754C4.49463 9.80578 4.53611 9.57938 4.61907 9.39651C4.70203 9.21379 4.81843 9.0754 4.96828 8.98165C5.1178 8.88806 5.29208 8.84119 5.49016 8.84119C5.79435 8.84119 6.03648 8.94642 6.21623 9.15655C6.39598 9.36685 6.48601 9.67313 6.48601 10.0754C6.48601 10.3452 6.4455 10.5714 6.36478 10.7543Z" fill="white"/>
<path d="M12.6886 8.36109C12.6146 8.36109 12.5526 8.37831 12.5018 8.41258C12.451 8.44686 12.4095 8.50968 12.3773 8.60104L11.5025 11.0271L10.6278 8.60104C10.6046 8.51877 10.5657 8.45834 10.5104 8.41944C10.4551 8.38054 10.3859 8.36109 10.303 8.36109C10.2245 8.36109 10.1586 8.38054 10.1059 8.41944C10.0528 8.45834 10.01 8.51877 9.97789 8.60104L9.09378 11.0179L8.2354 8.61475C8.20324 8.51877 8.16401 8.4526 8.11771 8.41593C8.07172 8.37942 8.00934 8.36108 7.93121 8.36108C7.84825 8.36108 7.78136 8.37942 7.73055 8.41593C7.67975 8.4526 7.64759 8.50282 7.63376 8.56676C7.61994 8.63085 7.62926 8.70627 7.66142 8.79316L8.69168 11.5154C8.72865 11.616 8.77914 11.6879 8.84377 11.7313C8.9084 11.7748 8.98429 11.7965 9.07207 11.7965C9.16436 11.7965 9.2425 11.7735 9.30713 11.7279C9.37176 11.6823 9.42225 11.6114 9.45922 11.5154L10.289 9.25969L11.1188 11.5154C11.1557 11.6114 11.2075 11.6823 11.2744 11.7279C11.3413 11.7735 11.4185 11.7965 11.5059 11.7965C11.5937 11.7965 11.6709 11.7735 11.7378 11.7279C11.8043 11.6823 11.8542 11.6114 11.8863 11.5154L12.9166 8.79316C12.9442 8.71998 12.9545 8.6503 12.9478 8.58398C12.9407 8.51781 12.9166 8.46392 12.8751 8.42279C12.8336 8.38166 12.7716 8.36109 12.6886 8.36109Z" fill="white"/>
<path d="M16.5018 10.1612C16.5455 10.1223 16.5674 10.0663 16.5674 9.99312C16.5674 9.73722 16.5339 9.50748 16.467 9.30403C16.4002 9.10059 16.3021 8.92808 16.1731 8.78634C16.0442 8.6446 15.8886 8.53603 15.7066 8.46061C15.5242 8.3852 15.3204 8.34741 15.0946 8.34741C14.7763 8.34741 14.494 8.42059 14.2474 8.5668C14.0007 8.71316 13.8071 8.9166 13.6666 9.17712C13.5261 9.43764 13.4557 9.74169 13.4557 10.0891C13.4557 10.4411 13.5271 10.7463 13.6702 11.0046C13.8129 11.2629 14.0146 11.4617 14.275 11.601C14.5355 11.7406 14.848 11.8102 15.212 11.8102C15.4056 11.8102 15.6072 11.7817 15.8172 11.7244C16.0268 11.6674 16.2079 11.5864 16.36 11.4811C16.4243 11.44 16.4683 11.392 16.4912 11.3372C16.5143 11.2822 16.5214 11.2308 16.5121 11.1828C16.5027 11.1348 16.4796 11.0937 16.4429 11.0594C16.4059 11.0252 16.3587 11.0068 16.3011 11.0046C16.2436 11.0024 16.1802 11.0216 16.1111 11.0628C15.968 11.1588 15.8194 11.2251 15.6651 11.2616C15.5104 11.2983 15.3596 11.3164 15.212 11.3164C14.8387 11.3164 14.5528 11.2114 14.3548 11.0011C14.1822 10.8183 14.0894 10.5545 14.067 10.2194H16.3114C16.3944 10.2194 16.4577 10.2001 16.5018 10.1612L16.5018 10.1612ZM14.076 9.82173C14.0935 9.66434 14.1237 9.51575 14.1818 9.3863C14.2647 9.2012 14.3847 9.05707 14.5413 8.95423C14.6982 8.85139 14.8872 8.80005 15.1085 8.80005C15.3111 8.80005 15.4805 8.84342 15.6165 8.93031C15.7525 9.01721 15.8561 9.14396 15.9278 9.31089C15.9888 9.45355 16.0182 9.62741 16.0271 9.82173H14.076Z" fill="white"/>
<path d="M19.0775 8.34054C18.7685 8.35887 18.5129 8.43891 18.31 8.58049C18.1588 8.6861 18.0438 8.82879 17.9643 9.00798V8.67647C17.9643 8.5714 17.9376 8.49263 17.8846 8.44002C17.8315 8.38741 17.7569 8.3611 17.6598 8.3611C17.563 8.3611 17.4871 8.38741 17.4318 8.44002C17.3765 8.49263 17.3489 8.5714 17.3489 8.67647V11.4743C17.3489 11.5795 17.3765 11.6594 17.4318 11.7142C17.4871 11.7691 17.5679 11.7965 17.6736 11.7965C17.7753 11.7965 17.8524 11.7691 17.9055 11.7142C17.9585 11.6594 17.9849 11.5795 17.9849 11.4743V9.86969C17.9849 9.58159 18.0669 9.35535 18.2306 9.19081C18.3939 9.02627 18.628 8.92806 18.9322 8.89601L19.0566 8.88916C19.1534 8.88007 19.2248 8.84914 19.2711 8.79652C19.3171 8.74407 19.338 8.67424 19.3332 8.58734C19.3287 8.49598 19.3033 8.43094 19.2573 8.39203C19.211 8.35313 19.1512 8.33607 19.0775 8.34054L19.0775 8.34054Z" fill="white"/>
<path d="M22.6699 10.1612C22.7136 10.1223 22.7355 10.0663 22.7355 9.99312C22.7355 9.73722 22.702 9.50748 22.6351 9.30403C22.5682 9.10059 22.4702 8.92808 22.3412 8.78634C22.2123 8.6446 22.0566 8.53603 21.8747 8.46061C21.6923 8.3852 21.4885 8.34741 21.2627 8.34741C20.9444 8.34741 20.6621 8.42059 20.4154 8.5668C20.1688 8.71316 19.9752 8.9166 19.8347 9.17712C19.6942 9.43764 19.6238 9.74169 19.6238 10.0891C19.6238 10.4411 19.6952 10.7463 19.8383 11.0046C19.981 11.2629 20.1826 11.4617 20.4431 11.601C20.7036 11.7406 21.0161 11.8102 21.3801 11.8102C21.5737 11.8102 21.7753 11.7817 21.9853 11.7244C22.1949 11.6674 22.376 11.5864 22.5281 11.4811C22.5924 11.44 22.6364 11.392 22.6592 11.3372C22.6824 11.2822 22.6895 11.2308 22.6801 11.1828C22.6708 11.1348 22.6477 11.0937 22.611 11.0594C22.574 11.0252 22.5268 11.0068 22.4692 11.0046C22.4117 11.0024 22.3483 11.0216 22.2792 11.0628C22.1361 11.1588 21.9875 11.2251 21.8332 11.2616C21.6785 11.2983 21.5277 11.3164 21.3801 11.3164C21.0068 11.3164 20.7209 11.2114 20.5228 11.0011C20.3503 10.8183 20.2575 10.5545 20.2351 10.2194H22.4795C22.5625 10.2194 22.6258 10.2001 22.6699 10.1612L22.6699 10.1612ZM20.2441 9.82173C20.2616 9.66434 20.2918 9.51575 20.3498 9.3863C20.4328 9.2012 20.5527 9.05707 20.7093 8.95423C20.8663 8.85139 21.0553 8.80005 21.2766 8.80005C21.4791 8.80005 21.6486 8.84342 21.7846 8.93031C21.9206 9.01721 22.0242 9.14396 22.0959 9.31089C22.1569 9.45355 22.1863 9.62741 22.1952 9.82173C22.1952 9.82173 20.2441 9.82173 20.2441 9.82173Z" fill="white"/>
<path d="M26.2481 6.86621C26.1465 6.86621 26.0693 6.89268 26.0162 6.94514C25.9635 6.99775 25.9368 7.07651 25.9368 7.18174V8.97527C25.8547 8.81428 25.7357 8.67883 25.5773 8.57028C25.3606 8.42168 25.1024 8.34738 24.803 8.34738C24.503 8.34738 24.2416 8.41722 24.0181 8.55656C23.7943 8.69607 23.6216 8.89489 23.4994 9.15302C23.3773 9.41146 23.3162 9.71886 23.3162 10.0754C23.3162 10.4274 23.3785 10.7348 23.503 10.9977C23.6274 11.2606 23.8014 11.4617 24.0249 11.601C24.2487 11.7405 24.5078 11.8102 24.803 11.8102C25.1024 11.8102 25.3619 11.7348 25.5809 11.584C25.7389 11.475 25.8568 11.3375 25.9368 11.1735V11.4743C25.9368 11.5795 25.9645 11.6594 26.0198 11.7142C26.0751 11.7691 26.1513 11.7965 26.2481 11.7965C26.3494 11.7965 26.4278 11.7691 26.4831 11.7142C26.5384 11.6594 26.5661 11.5795 26.5661 11.4743V7.18174C26.5661 7.07651 26.5384 6.99775 26.4831 6.94513C26.4278 6.89268 26.3494 6.86621 26.2481 6.86621L26.2481 6.86621ZM25.8227 10.7542C25.742 10.9371 25.6268 11.0765 25.477 11.1724C25.3272 11.2684 25.151 11.3164 24.948 11.3164C24.6484 11.3164 24.4075 11.2102 24.2255 10.9977C24.0432 10.785 23.9525 10.4776 23.9525 10.0754C23.9525 9.80576 23.994 9.57936 24.077 9.39648C24.1599 9.21377 24.2763 9.07537 24.4262 8.98163C24.5757 8.88804 24.75 8.84116 24.948 8.84116C25.2522 8.84116 25.4944 8.94639 25.6741 9.15653C25.8539 9.36682 25.9439 9.6731 25.9439 10.0754C25.9439 10.3451 25.9034 10.5714 25.8227 10.7542Z" fill="white"/>
<path d="M31.9285 8.55656C31.7047 8.41721 31.4433 8.34738 31.1436 8.34738C30.8439 8.34738 30.586 8.42168 30.3693 8.57027C30.211 8.67879 30.0918 8.81417 30.0098 8.97507V7.18174C30.0098 7.07651 29.9821 6.99775 29.9268 6.94513C29.8715 6.89268 29.793 6.86621 29.6914 6.86621C29.5946 6.86621 29.5188 6.89268 29.4635 6.94513C29.4081 6.99775 29.3805 7.07651 29.3805 7.18174V11.4743C29.3805 11.5795 29.4081 11.6594 29.4635 11.7142C29.5188 11.7691 29.5946 11.7965 29.6914 11.7965C29.793 11.7965 29.8702 11.7691 29.9233 11.7142C29.976 11.6594 30.0027 11.5795 30.0027 11.4743V11.1682C30.0846 11.3346 30.2038 11.4737 30.3622 11.584C30.5789 11.7348 30.8394 11.8102 31.1436 11.8102C31.4433 11.8102 31.7037 11.7405 31.9249 11.601C32.1462 11.4617 32.3192 11.2606 32.4436 10.9977C32.5681 10.7348 32.6304 10.4274 32.6304 10.0754C32.6304 9.71886 32.569 9.41147 32.4471 9.15302C32.325 8.89488 32.152 8.69607 31.9285 8.55656ZM31.8696 10.7542C31.7867 10.9371 31.6703 11.0765 31.5204 11.1724C31.3706 11.2684 31.1966 11.3164 30.9985 11.3164C30.6944 11.3164 30.4522 11.2102 30.2725 10.9977C30.0927 10.785 30.0027 10.4776 30.0027 10.0754C30.0027 9.80575 30.0429 9.57935 30.1236 9.39648C30.2043 9.21376 30.3197 9.07537 30.4696 8.98162C30.6191 8.88803 30.7956 8.84115 30.9985 8.84115C31.3027 8.84115 31.5449 8.94638 31.7246 9.15652C31.9044 9.36682 31.9941 9.6731 31.9941 10.0754C31.9941 10.3451 31.9526 10.5714 31.8696 10.7542Z" fill="white"/>
<path d="M36.2082 8.42278C36.1644 8.38165 36.1033 8.36108 36.0249 8.36108C35.9374 8.36108 35.8683 8.37942 35.8175 8.41593C35.7667 8.4526 35.7229 8.51654 35.6863 8.60789L34.6776 11.0272L33.6878 8.60789C33.6463 8.51653 33.6026 8.4526 33.5563 8.41593C33.5103 8.37942 33.4479 8.36108 33.3698 8.36108C33.2775 8.36108 33.2048 8.38165 33.1518 8.42278C33.0987 8.46392 33.0679 8.51653 33.0585 8.58047C33.0492 8.64456 33.0608 8.71535 33.0933 8.79316L34.3428 11.6781L33.9299 12.6056C33.8975 12.6786 33.8849 12.7485 33.8917 12.8148C33.8988 12.881 33.9264 12.9336 33.9746 12.9725C34.0232 13.0112 34.0843 13.0307 34.1579 13.0307C34.2454 13.0307 34.3136 13.0136 34.3621 12.9793C34.4103 12.9451 34.4576 12.8798 34.5036 12.7839L36.2461 8.7863C36.2831 8.71312 36.2969 8.64456 36.2876 8.58046C36.2786 8.51653 36.2519 8.46392 36.2082 8.42278Z" fill="white"/>
<path d="M65.5982 4.2023H81.6887C82.2341 4.2023 82.6762 3.76387 82.6762 3.22306V0.979244C82.6762 0.438434 82.2341 0 81.6887 0H65.5982C65.0529 0 64.6107 0.438431 64.6107 0.979241V3.22306C64.6107 3.76387 65.0529 4.2023 65.5982 4.2023ZM64.685 0.979241C64.685 0.479903 65.0947 0.0736579 65.5982 0.0736579H81.6887C82.1922 0.0736579 82.6019 0.479903 82.6019 0.979241V3.22306C82.6019 3.7224 82.1922 4.12864 81.6887 4.12864H65.5982C65.0947 4.12864 64.685 3.7224 64.685 3.22306V0.979244V0.979241Z" fill="white"/>
<path d="M66.3927 1.93743L67.576 3.1744H67.7697V1.02942H67.3049V2.28026L66.1179 1.0401L66.1084 1.02942H65.9272V3.1744H66.3927V1.93743Z" fill="white"/>
<path d="M69.2192 1.02783H68.7556V3.17449H69.2192V1.02783Z" fill="white"/>
<path d="M73.5042 1.93743L74.6877 3.1744H74.8812V1.02942H74.4167V2.28026L73.2194 1.02942H73.0388V3.1744H73.5042V1.93743Z" fill="white"/>
<path d="M76.4141 3.1744H76.879V1.48644H77.5414V1.02942H75.7523V1.48644H76.4141V3.1744Z" fill="white"/>
<path d="M78.8871 1.02783H78.4238V3.17449H78.8871V1.02783Z" fill="white"/>
<path d="M80.8191 3.17442H80.8192C81.0918 3.17442 81.2939 3.09176 81.5167 2.88913L81.5422 2.86623L81.2331 2.51192L81.2081 2.53329C81.0849 2.63732 80.9913 2.69017 80.8216 2.69017C80.6534 2.69017 80.5163 2.6363 80.4143 2.53012C80.3118 2.42421 80.2594 2.27781 80.2584 2.09518C80.2584 1.92488 80.3103 1.78396 80.4126 1.67631C80.5145 1.56826 80.6513 1.51309 80.8192 1.51229C80.9847 1.51229 81.0802 1.56573 81.2084 1.67105L81.2334 1.69118L81.5421 1.33833L81.5169 1.31529C81.2946 1.11229 81.0924 1.02942 80.8192 1.02942C80.5305 1.02942 80.2849 1.13323 80.0891 1.33797C79.8936 1.54321 79.7941 1.7989 79.7935 2.09807C79.7935 2.40365 79.8927 2.66201 80.0883 2.86587C80.2849 3.06954 80.5308 3.17335 80.8191 3.17443V3.17442H80.8191Z" fill="white"/>
<path d="M70.7058 2.85607H71.56L71.6791 3.17444L72.1748 3.17265L71.3549 1.02942H70.9111L70.1081 3.12699L70.0902 3.17444H70.5869C70.5869 3.17444 70.7058 2.85607 70.7058 2.85607ZM71.1427 1.69379L71.3952 2.37359L70.8782 2.37975L71.1427 1.69379Z" fill="white"/>
<path d="M69.0095 6.06213C68.6877 6.06229 68.414 6.28006 68.3454 6.5865L66.9315 11.8425L65.7715 7.13293C65.6961 6.83112 65.424 6.62004 65.1102 6.61988H64.1052C63.7917 6.62004 63.5197 6.83096 63.444 7.13341L62.2849 11.8423L60.8723 6.59146C60.8024 6.28006 60.5288 6.06229 60.2069 6.06213H58.9705L61.2203 14.0304L61.2458 14.1199H62.7547C63.0638 14.1186 63.3341 13.9112 63.4118 13.615C63.7495 12.3376 64.3517 9.8265 64.6079 8.7527C64.864 9.8265 65.467 12.3376 65.8043 13.615C65.8823 13.9112 66.1527 14.1186 66.4617 14.1199H67.9707L70.2459 6.06214H69.0095V6.06213H69.0095Z" fill="white"/>
<path d="M56.5805 7.97239C56.1855 7.75845 55.7253 7.64692 55.2929 7.65796C54.8972 7.65491 54.516 7.73256 54.1567 7.89122C53.9515 7.97959 53.7468 8.1352 53.5364 8.36399V6.72219C53.5409 6.54435 53.4752 6.37547 53.3514 6.24653C53.2277 6.11776 53.0608 6.04442 52.8616 6.03979H51.7294V14.1167H52.861C53.0321 14.1084 53.2093 14.0496 53.337 13.9244C53.4646 13.7994 53.5351 13.6326 53.5364 13.4473L53.5361 10.6481C53.5058 10.259 53.6376 9.81741 53.8577 9.55604C54.0962 9.31367 54.4248 9.18218 54.7851 9.20311C55.124 9.18043 55.4592 9.31031 55.6905 9.54916C55.9315 9.83483 56.0504 10.1969 56.025 10.577V13.454C56.025 13.8211 56.3263 14.1199 56.6965 14.1199H57.8285V10.3704C57.8423 9.8684 57.7337 9.36352 57.5127 8.90769C57.3049 8.50651 56.9824 8.18297 56.5805 7.97239V7.97239H56.5805Z" fill="white"/>
<path d="M78.1024 6.26591C77.9799 6.40075 77.9104 6.57936 77.9116 6.75496V13.4502C77.9104 13.6278 77.9792 13.7956 78.1056 13.9221C78.2316 14.0487 78.3998 14.1187 78.5831 14.1199H79.7155V6.04333H78.5825C78.4023 6.04445 78.2319 6.12337 78.1024 6.26591Z" fill="white"/>
<path d="M82.6874 6.05176H81.5548C81.3743 6.05287 81.2055 6.13036 81.0788 6.27017C80.959 6.4023 80.8913 6.57931 80.8922 6.75491V13.4501C80.8909 13.6278 80.9599 13.7956 81.0862 13.9221C81.2122 14.0486 81.3804 14.1186 81.5638 14.1199H82.6957C82.6957 14.1199 82.6874 6.05175 82.6874 6.05176Z" fill="white"/>
<path d="M74.9278 8.32869V8.41353C74.7406 8.22707 74.5235 8.06875 74.2879 7.94732C73.9019 7.75161 73.4723 7.65429 73.0399 7.6618C71.9894 7.6404 70.9844 8.2469 70.5146 9.18939C70.2497 9.70911 70.1151 10.2912 70.125 10.8686C70.114 11.4514 70.2462 12.0356 70.5075 12.5578C70.7434 13.0317 71.1079 13.43 71.5608 13.709C71.9924 13.9781 72.4885 14.1199 72.9942 14.1199H73.0747C73.4946 14.1199 73.9132 14.0205 74.2879 13.8307C74.5257 13.7099 74.7425 13.5499 74.9278 13.3594V13.4559C74.9278 13.8218 75.2291 14.1196 75.6029 14.1196H76.7349V7.6618H75.6029C75.2307 7.6618 74.9278 7.96089 74.9278 8.32869ZM74.6022 11.845C74.4695 12.0918 74.2719 12.2982 74.0326 12.4408C73.7923 12.5777 73.5187 12.6501 73.2414 12.6501H73.2396C72.9684 12.6501 72.7027 12.576 72.4707 12.4352C72.2221 12.2871 72.0194 12.0746 71.885 11.8215C71.732 11.5292 71.654 11.2008 71.6598 10.8664C71.6519 10.5405 71.7296 10.2165 71.8836 9.93037C72.0194 9.68478 72.2195 9.47925 72.4607 9.33711C72.7031 9.20041 72.975 9.13207 73.2468 9.13207C73.5187 9.13207 73.7907 9.20041 74.0329 9.33693C74.2808 9.47735 74.4826 9.68325 74.6156 9.93055C74.7665 10.2235 74.8421 10.552 74.8342 10.8857C74.8393 11.2188 74.7593 11.5507 74.6022 11.845Z" fill="white"/>
<path d="M49.1053 6.68408C49.1053 6.33533 48.852 6.06213 48.5327 6.06213H47.4242V7.77253H47.4182C46.9531 7.77253 46.5762 8.14636 46.5762 8.60751V9.45033H47.4242V12.3403C47.399 12.8878 47.6108 13.397 47.9359 13.7376C48.2162 14.031 48.6009 14.186 49.0488 14.186C49.5341 14.186 49.9105 14.0449 50.167 13.7665C50.5634 13.3361 50.5195 12.7401 50.5175 12.7148L50.5082 12.6013H49.6855C49.4926 12.6093 49.3421 12.562 49.248 12.4674C49.0923 12.311 49.1014 12.0412 49.1053 11.926V9.45033H49.7138C50.1789 9.45033 50.5558 9.07649 50.5558 8.61536V7.77253H49.1053V6.68407V6.68408Z" fill="white"/>
<path d="M45.0363 4.81191L42.8985 3.67858C42.5046 3.46977 42.0316 3.46977 41.6377 3.67858L39.4997 4.81191C39.0647 5.04256 38.793 5.49209 38.793 5.98134V8.07623C38.793 8.5655 39.0647 9.01501 39.4997 9.24566L40.1637 9.59767L39.4997 9.94967C39.0647 10.1803 38.793 10.6298 38.793 11.1191V13.214C38.793 13.7033 39.0647 14.1528 39.4997 14.3834L41.6377 15.5167C42.0316 15.7256 42.5046 15.7256 42.8985 15.5167L45.0363 14.3834C45.4715 14.1528 45.7431 13.7033 45.7431 13.214V11.1191C45.7431 10.6298 45.4715 10.1803 45.0363 9.94967L44.3723 9.59767L45.0363 9.24566C45.4715 9.01501 45.7431 8.5655 45.7431 8.07623V5.98134C45.7431 5.49209 45.4715 5.04256 45.0363 4.81191ZM43.8841 12.6536C43.8841 12.8812 43.7578 13.0902 43.5554 13.1975L42.5613 13.7245C42.378 13.8216 42.1581 13.8216 41.9749 13.7245L40.9807 13.1975C40.7784 13.0902 40.6521 12.8812 40.6521 12.6536V11.6794C40.6521 11.4519 40.7784 11.2429 40.9807 11.1356L41.9749 10.6086C42.1581 10.5115 42.3781 10.5115 42.5613 10.6086L43.5554 11.1356C43.7578 11.2429 43.8841 11.4519 43.8841 11.6794V12.6536ZM43.8841 7.51588C43.8841 7.7434 43.7578 7.95244 43.5554 8.0597L42.5613 8.58674C42.378 8.68384 42.1581 8.68384 41.9749 8.58674L40.9807 8.0597C40.7784 7.95244 40.6521 7.7434 40.6521 7.51588V6.54168C40.6521 6.31417 40.7784 6.10512 40.9807 5.99786L41.9749 5.47083C42.1581 5.37373 42.3781 5.37373 42.5613 5.47083L43.5554 5.99786C43.7578 6.10512 43.8841 6.31417 43.8841 6.54168V7.51588Z" fill="white"/>
</svg>
